<svg id="Layer_2" data-name="Layer 2" xmlns="http://www.w3.org/2000/svg" viewBox="0 0 2041.15 500"><defs><style>.cls-1{fill:#ff2400;fill-rule:evenodd;}.cls-2{fill:#231f20;}</style></defs><path class="cls-1" d="M370.26,263.71c-.17-1.19-.27-1.83-.27-1.83L338.25,73.21l-21.95-15C317.85,68,335,204.76,343.57,272.76q-5.07,1.69-10.12,3.35l-.13-1.37L312.39,55.53,290.3,40.42l15.37,242.36.14,2.3-12.46,4,0-1.3c1.06-48.1-6.08-249.4-6.08-249.4L264.35,22.63c-68.86,157.55-104,305.11-104,305.11l-81,28s-14.94,13.69-11.18,34.44,29.18,11.56,29.18,11.56l55-17-11,72.61s-1.9,16.17,9.72,19.1,30.28-10.71,30.28-10.71l12.53-98.07c21.2-6.89,42.73-14.48,63.41-22.11-.77,11-7.9,111.39-8.94,121.18-1.09,10.12,11.33,9.33,11.33,9.33,20.45-3,29.67-11.33,29.67-11.33,2-25.16,4.71-123.54,5-133.22q7.17-2.79,14-5.51c3.72,53.33-2.67,141.75-2.67,141.75s1.18,9,12.92,9.6,23.73-11.62,23.73-11.62c1.74-87.62-5-151-5-151l0-.36q5.7-2.33,11-4.5l.09.74c4.52,28.46,10,157,10,157s2.15,10.83,15.22,7.4,19.72-9.4,19.72-9.4c.13-32.27-11.1-117.69-18-167.08,11.44-4.87,18.06-7.8,18.06-7.8,76.8-37.78,112-85,112-85C484.49,221.73,428.39,243.65,370.26,263.71ZM262.32,125.9l-3,172.84,0,.89c-32.09,9.83-54,16.11-54,16.11C225.64,195.74,262.32,125.9,262.32,125.9Z"/><rect class="cls-2" x="549.67" y="22.63" width="4.55" height="454.75" transform="translate(1103.89 500) rotate(180)"/><path d="M717.93,92.89h62.91l81,285.07H810.57l-19-69.87H701.55L681.73,378H630.46Zm65.49,178.87L748.09,131.22h-.86L710.6,271.76Z"/><path d="M883.39,92.89h76.7l54.29,211.21h.86l53.43-211.21h75V378h-46.54V140.8h-.86L1034.2,378H992.84L930.79,140.8h-.86V378H883.39Z"/><path d="M1193.63,89.7h46.54v43.12h-46.54Zm0,73.46h46.54V378h-46.54Z"/><path d="M1479.31,275.75v6c0,51.51-22.84,101.81-94.8,101.81-77.56,0-101.69-46.31-101.69-148.12S1307,87.3,1384.94,87.3c87.47,0,92.64,59.49,92.64,89.44v5.19h-49.12v-4.8c0-26.75-8.62-56.69-44-55.49-36.63,0-52.57,20.76-52.57,112.59s15.94,115,52.57,115c41.37,0,45.68-41.93,45.68-68.68v-4.79Z"/><path d="M1559,92.89V297.31c0,36.33,15.52,51.91,45.25,51.91,29.3,0,44.81-15.58,44.81-51.91V92.89h49.12V293.72c0,65.88-35.33,89.83-93.93,89.83-59,0-94.37-23.95-94.37-89.83V92.89Z"/><path d="M1783.08,289.73v7.18c0,34.74,16.81,52.31,50.42,52.31,30.59,0,46.54-20.77,46.54-41.53,0-29.94-16.38-43.12-44-50.7l-33.6-10.78c-44.82-16-64.21-37.53-64.21-78.26,0-51.9,38.35-80.65,95.66-80.65,78.85,0,87,45.52,87,75.06v6.39h-49.12v-6c0-25.95-12.07-41.12-43.09-41.12-21.11,0-41.37,10.78-41.37,41.12,0,24.36,13.36,36.73,46.11,48.31l33.18,11.18c43.52,14.37,62.48,35.93,62.48,75.46,0,60.69-39.64,85.84-101.69,85.84-76.27,0-93.51-47.11-93.51-87v-6.78Z"/></svg>